# xmcd CD database file
#
# Track frame offsets:
#	150
#	4432
#	28660
#	53256
#	76335
#	99032
#	119143
#	137640
#	157951
#	185470
#	208410
#	230228
#	255498
#
# Disc length: 3642 seconds
#
# Revision: 0
# Processed by: cddbd v1.5.2PL0 Copyright (c) Steve Scherf et al.
# Submitted via: CDex 1.70beta2
#
DISCID=aa0e380d
DTITLE=Hans Jansen - Mohammed. Een hoorcollege over de profeet van de Islam [CD1]
DYEAR=2008
DGENRE=Salsa
TTITLE0=1. Introductie 
TTITLE1=2. Het begin (1) 
TTITLE2=3. Het begin (2) 
TTITLE3=4. Het begin (3) 
TTITLE4=5. Het begin (4) 
TTITLE5=6. Het begin (5)
TTITLE6=7. De aard van de bronnen (1) 
TTITLE7=8. De aard van de bronnen (2) 
TTITLE8=9. De aard van de bronnen (3) 
TTITLE9=10. Het begin van de openbaring (1) 
TTITLE10=11. Het begin van de openbaring (2) 
TTITLE11=12. Het begin van de openbaring (3) 
TTITLE12=13. Het begin van de openbaring (4) 
EXTD=YEAR: 2008
EXTT0=
EXTT1=
EXTT2=
EXTT3=
EXTT4=
EXTT5=
EXTT6=
EXTT7=
EXTT8=
EXTT9=
EXTT10=
EXTT11=
EXTT12=
PLAYORDER=
